<mxfile host="Electron" modified="2024-03-19T17:11:58.356Z" agent="Mozilla/5.0 (Macintosh; Intel Mac OS X 10_15_7) AppleWebKit/537.36 (KHTML, like Gecko) draw.io/24.0.4 Chrome/120.0.6099.109 Electron/28.1.0 Safari/537.36" etag="WnDTCdqACImvRYgOu9Os" version="24.0.4" type="device">
  <diagram name="Page-1" id="KlLYC5LGNAKORk4_1ZDb">
    <mxGraphModel dx="1082" dy="701" grid="0" gridSize="10" guides="1" tooltips="1" connect="1" arrows="1" fold="1" page="1" pageScale="1" pageWidth="2339" pageHeight="3300" math="0" shadow="0">
      <root>
        <mxCell id="0" />
        <mxCell id="1" parent="0" />
        <mxCell id="JT9aqktlmIeVcldBPZ3t-16" value="" style="rounded=1;whiteSpace=wrap;html=1;dashed=1;fillColor=none;arcSize=6;absoluteArcSize=1;" vertex="1" parent="1">
          <mxGeometry x="222" y="209" width="929" height="329" as="geometry" />
        </mxCell>
        <mxCell id="JT9aqktlmIeVcldBPZ3t-201" style="edgeStyle=orthogonalEdgeStyle;rounded=0;orthogonalLoop=1;jettySize=auto;html=1;exitX=0.5;exitY=0;exitDx=0;exitDy=0;entryX=0.893;entryY=-0.026;entryDx=0;entryDy=0;entryPerimeter=0;fontFamily=Helvetica;fontSize=12;fontColor=default;" edge="1" parent="1">
          <mxGeometry relative="1" as="geometry">
            <mxPoint x="495" y="584.25" as="sourcePoint" />
            <mxPoint x="954.096" y="243.707" as="targetPoint" />
            <Array as="points">
              <mxPoint x="495" y="222" />
              <mxPoint x="954" y="222" />
            </Array>
          </mxGeometry>
        </mxCell>
        <mxCell id="JT9aqktlmIeVcldBPZ3t-202" value="F1" style="edgeLabel;html=1;align=center;verticalAlign=middle;resizable=0;points=[];rounded=1;strokeColor=default;arcSize=8;fontFamily=Helvetica;fontSize=12;fontColor=default;fillColor=default;" vertex="1" connectable="0" parent="JT9aqktlmIeVcldBPZ3t-201">
          <mxGeometry x="0.8254" y="1" relative="1" as="geometry">
            <mxPoint as="offset" />
          </mxGeometry>
        </mxCell>
        <mxCell id="JT9aqktlmIeVcldBPZ3t-11" value="" style="rounded=1;whiteSpace=wrap;html=1;strokeColor=default;align=center;verticalAlign=middle;arcSize=6;fontFamily=Helvetica;fontSize=12;fontColor=default;fillColor=none;dashed=1;absoluteArcSize=1;movable=0;resizable=0;rotatable=0;deletable=0;editable=0;locked=1;connectable=0;" vertex="1" parent="1">
          <mxGeometry x="325" y="227" width="732" height="201" as="geometry" />
        </mxCell>
        <mxCell id="JT9aqktlmIeVcldBPZ3t-9" value="" style="rounded=1;whiteSpace=wrap;html=1;dashed=1;fillColor=none;arcSize=6;" vertex="1" parent="1">
          <mxGeometry x="224" y="121" width="925" height="60" as="geometry" />
        </mxCell>
        <mxCell id="JT9aqktlmIeVcldBPZ3t-7" value="ALCHEMY" style="text;html=1;align=center;verticalAlign=middle;whiteSpace=wrap;rounded=0;fontSize=20;" vertex="1" parent="1">
          <mxGeometry x="110" y="137" width="84" height="27" as="geometry" />
        </mxCell>
        <mxCell id="JT9aqktlmIeVcldBPZ3t-10" value="ONEKEY Server" style="text;html=1;align=center;verticalAlign=middle;whiteSpace=wrap;rounded=0;fontSize=20;" vertex="1" parent="1">
          <mxGeometry x="89" y="193.25" width="126" height="60" as="geometry" />
        </mxCell>
        <mxCell id="JT9aqktlmIeVcldBPZ3t-13" value="Kubernetes Cluster" style="text;html=1;align=center;verticalAlign=middle;whiteSpace=wrap;rounded=0;fontFamily=Helvetica;fontSize=16;fontColor=default;" vertex="1" parent="1">
          <mxGeometry x="246" y="275" width="60" height="30" as="geometry" />
        </mxCell>
        <mxCell id="JT9aqktlmIeVcldBPZ3t-166" style="edgeStyle=orthogonalEdgeStyle;rounded=0;orthogonalLoop=1;jettySize=auto;html=1;exitX=0.16;exitY=1;exitDx=0;exitDy=0;exitPerimeter=0;entryX=0.75;entryY=0;entryDx=0;entryDy=0;fontFamily=Helvetica;fontSize=12;fontColor=default;" edge="1" parent="1" source="JT9aqktlmIeVcldBPZ3t-15" target="JT9aqktlmIeVcldBPZ3t-18">
          <mxGeometry relative="1" as="geometry" />
        </mxCell>
        <mxCell id="JT9aqktlmIeVcldBPZ3t-17" value="&lt;span style=&quot;font-family: &amp;quot;Helvetica Neue&amp;quot;; text-align: start;&quot;&gt;Webhooks&lt;/span&gt;" style="rounded=1;whiteSpace=wrap;html=1;arcSize=8;fontSize=13;points=[[0,0,0,0,0],[0,0.25,0,0,0],[0,0.5,0,0,0],[0,0.75,0,0,0],[0,1,0,0,0],[0.25,0,0,0,0],[0.25,1,0,0,0],[0.5,0,0,0,0],[0.5,1,0,0,0],[0.75,0,0,0,0],[0.75,1,0,0,0],[1,0,0,0,0],[1,0.25,0,0,0],[1,0.5,0,0,0],[1,0.75,0,0,0],[1,1,0,0,0]];" vertex="1" parent="1">
          <mxGeometry x="340" y="136.25" width="347" height="29.5" as="geometry" />
        </mxCell>
        <mxCell id="JT9aqktlmIeVcldBPZ3t-116" style="edgeStyle=orthogonalEdgeStyle;rounded=0;orthogonalLoop=1;jettySize=auto;html=1;exitX=0;exitY=0.5;exitDx=0;exitDy=0;entryX=0;entryY=0.5;entryDx=0;entryDy=0;fontFamily=Helvetica;fontSize=12;fontColor=default;" edge="1" parent="1">
          <mxGeometry relative="1" as="geometry">
            <mxPoint x="370" y="310" as="sourcePoint" />
            <mxPoint x="370" y="459" as="targetPoint" />
            <Array as="points">
              <mxPoint x="345" y="310" />
              <mxPoint x="345" y="459" />
            </Array>
          </mxGeometry>
        </mxCell>
        <mxCell id="JT9aqktlmIeVcldBPZ3t-117" value="C3" style="edgeLabel;html=1;align=center;verticalAlign=middle;resizable=0;points=[];rounded=1;strokeColor=default;arcSize=8;fontFamily=Helvetica;fontSize=12;fontColor=default;fillColor=default;" vertex="1" connectable="0" parent="JT9aqktlmIeVcldBPZ3t-116">
          <mxGeometry x="-0.1073" y="-1" relative="1" as="geometry">
            <mxPoint as="offset" />
          </mxGeometry>
        </mxCell>
        <mxCell id="JT9aqktlmIeVcldBPZ3t-171" style="edgeStyle=orthogonalEdgeStyle;rounded=0;orthogonalLoop=1;jettySize=auto;html=1;exitX=1;exitY=0.25;exitDx=0;exitDy=0;entryX=0.5;entryY=0;entryDx=0;entryDy=0;fontFamily=Helvetica;fontSize=12;fontColor=default;" edge="1" parent="1" source="JT9aqktlmIeVcldBPZ3t-18">
          <mxGeometry relative="1" as="geometry">
            <mxPoint x="495" y="307" as="sourcePoint" />
            <mxPoint x="602" y="444" as="targetPoint" />
            <Array as="points">
              <mxPoint x="540" y="307" />
              <mxPoint x="540" y="420" />
              <mxPoint x="602" y="420" />
            </Array>
          </mxGeometry>
        </mxCell>
        <mxCell id="JT9aqktlmIeVcldBPZ3t-172" value="" style="edgeLabel;html=1;align=center;verticalAlign=middle;resizable=0;points=[];rounded=1;strokeColor=default;arcSize=8;fontFamily=Helvetica;fontSize=12;fontColor=default;fillColor=default;" vertex="1" connectable="0" parent="JT9aqktlmIeVcldBPZ3t-171">
          <mxGeometry x="0.3534" y="1" relative="1" as="geometry">
            <mxPoint as="offset" />
          </mxGeometry>
        </mxCell>
        <mxCell id="JT9aqktlmIeVcldBPZ3t-189" value="" style="edgeLabel;html=1;align=center;verticalAlign=middle;resizable=0;points=[];rounded=1;strokeColor=default;arcSize=8;fontFamily=Helvetica;fontSize=12;fontColor=default;fillColor=default;" vertex="1" connectable="0" parent="JT9aqktlmIeVcldBPZ3t-171">
          <mxGeometry x="0.4585" relative="1" as="geometry">
            <mxPoint as="offset" />
          </mxGeometry>
        </mxCell>
        <mxCell id="JT9aqktlmIeVcldBPZ3t-190" value="B1" style="edgeLabel;html=1;align=center;verticalAlign=middle;resizable=0;points=[];rounded=1;strokeColor=default;arcSize=8;fontFamily=Helvetica;fontSize=12;fontColor=default;fillColor=default;" vertex="1" connectable="0" parent="JT9aqktlmIeVcldBPZ3t-171">
          <mxGeometry x="0.54" relative="1" as="geometry">
            <mxPoint as="offset" />
          </mxGeometry>
        </mxCell>
        <mxCell id="JT9aqktlmIeVcldBPZ3t-18" value="Alchemy Event Listener&lt;span style=&quot;background-color: initial;&quot;&gt;&amp;nbsp;Service&lt;/span&gt;" style="rounded=1;whiteSpace=wrap;html=1;arcSize=6;fontSize=13;absoluteArcSize=1;" vertex="1" parent="1">
          <mxGeometry x="370" y="295" width="140" height="48" as="geometry" />
        </mxCell>
        <mxCell id="JT9aqktlmIeVcldBPZ3t-130" style="edgeStyle=elbowEdgeStyle;rounded=0;orthogonalLoop=1;jettySize=auto;html=1;exitX=1;exitY=0.5;exitDx=0;exitDy=0;entryX=0;entryY=0.5;entryDx=0;entryDy=0;fontFamily=Helvetica;fontSize=12;fontColor=default;" edge="1" parent="1">
          <mxGeometry relative="1" as="geometry">
            <mxPoint x="687" y="313" as="sourcePoint" />
            <mxPoint x="724" y="462" as="targetPoint" />
            <Array as="points">
              <mxPoint x="713" y="389" />
            </Array>
          </mxGeometry>
        </mxCell>
        <mxCell id="JT9aqktlmIeVcldBPZ3t-131" value="" style="edgeLabel;html=1;align=center;verticalAlign=middle;resizable=0;points=[];rounded=1;strokeColor=default;arcSize=8;fontFamily=Helvetica;fontSize=12;fontColor=default;fillColor=default;" vertex="1" connectable="0" parent="JT9aqktlmIeVcldBPZ3t-130">
          <mxGeometry x="0.2366" relative="1" as="geometry">
            <mxPoint as="offset" />
          </mxGeometry>
        </mxCell>
        <mxCell id="JT9aqktlmIeVcldBPZ3t-193" value="D2" style="edgeLabel;html=1;align=center;verticalAlign=middle;resizable=0;points=[];rounded=1;strokeColor=default;arcSize=8;fontFamily=Helvetica;fontSize=12;fontColor=default;fillColor=default;" vertex="1" connectable="0" parent="JT9aqktlmIeVcldBPZ3t-130">
          <mxGeometry x="-0.0753" relative="1" as="geometry">
            <mxPoint as="offset" />
          </mxGeometry>
        </mxCell>
        <mxCell id="JT9aqktlmIeVcldBPZ3t-19" value="Alchemy Event Handler&lt;span style=&quot;background-color: initial;&quot;&gt;&amp;nbsp;Service&lt;/span&gt;" style="rounded=1;whiteSpace=wrap;html=1;arcSize=6;fontSize=13;absoluteArcSize=1;" vertex="1" parent="1">
          <mxGeometry x="547" y="295" width="140" height="48" as="geometry" />
        </mxCell>
        <mxCell id="JT9aqktlmIeVcldBPZ3t-22" value="Pods" style="rounded=1;whiteSpace=wrap;html=1;arcSize=6;fontSize=13;absoluteArcSize=1;" vertex="1" parent="1">
          <mxGeometry x="370" y="364" width="140" height="48" as="geometry" />
        </mxCell>
        <mxCell id="JT9aqktlmIeVcldBPZ3t-208" style="edgeStyle=elbowEdgeStyle;rounded=0;orthogonalLoop=1;jettySize=auto;html=1;exitX=0;exitY=0.25;exitDx=0;exitDy=0;entryX=1;entryY=0.5;entryDx=0;entryDy=0;fontFamily=Helvetica;fontSize=12;fontColor=default;" edge="1" parent="1" source="JT9aqktlmIeVcldBPZ3t-25" target="JT9aqktlmIeVcldBPZ3t-34">
          <mxGeometry relative="1" as="geometry">
            <Array as="points">
              <mxPoint x="877" y="390" />
            </Array>
          </mxGeometry>
        </mxCell>
        <mxCell id="JT9aqktlmIeVcldBPZ3t-209" value="F3" style="edgeLabel;html=1;align=center;verticalAlign=middle;resizable=0;points=[];rounded=1;strokeColor=default;arcSize=8;fontFamily=Helvetica;fontSize=12;fontColor=default;fillColor=default;" vertex="1" connectable="0" parent="JT9aqktlmIeVcldBPZ3t-208">
          <mxGeometry x="-0.2646" relative="1" as="geometry">
            <mxPoint as="offset" />
          </mxGeometry>
        </mxCell>
        <mxCell id="JT9aqktlmIeVcldBPZ3t-25" value="Wallet&lt;br&gt;Client Service" style="rounded=1;whiteSpace=wrap;html=1;arcSize=6;fontSize=13;absoluteArcSize=1;" vertex="1" parent="1">
          <mxGeometry x="901" y="295" width="140" height="48" as="geometry" />
        </mxCell>
        <mxCell id="JT9aqktlmIeVcldBPZ3t-26" value="Pods" style="rounded=1;whiteSpace=wrap;html=1;arcSize=6;fontSize=13;absoluteArcSize=1;" vertex="1" parent="1">
          <mxGeometry x="547" y="364" width="140" height="48" as="geometry" />
        </mxCell>
        <mxCell id="JT9aqktlmIeVcldBPZ3t-132" value="" style="edgeStyle=orthogonalEdgeStyle;rounded=0;orthogonalLoop=1;jettySize=auto;html=1;fontFamily=Helvetica;fontSize=12;fontColor=default;" edge="1" parent="1" source="JT9aqktlmIeVcldBPZ3t-27" target="JT9aqktlmIeVcldBPZ3t-34">
          <mxGeometry relative="1" as="geometry" />
        </mxCell>
        <mxCell id="JT9aqktlmIeVcldBPZ3t-27" value="Pods" style="rounded=1;whiteSpace=wrap;html=1;arcSize=6;fontSize=13;absoluteArcSize=1;" vertex="1" parent="1">
          <mxGeometry x="724" y="364" width="140" height="48" as="geometry" />
        </mxCell>
        <mxCell id="JT9aqktlmIeVcldBPZ3t-29" value="Pulsar MQ Cluster" style="rounded=1;whiteSpace=wrap;html=1;arcSize=8;fontSize=13;absoluteArcSize=1;" vertex="1" parent="1">
          <mxGeometry x="370" y="444" width="140" height="48" as="geometry" />
        </mxCell>
        <mxCell id="JT9aqktlmIeVcldBPZ3t-31" value="ETCD Cluster" style="rounded=1;whiteSpace=wrap;html=1;arcSize=8;fontSize=13;absoluteArcSize=1;" vertex="1" parent="1">
          <mxGeometry x="547" y="444" width="140" height="48" as="geometry" />
        </mxCell>
        <mxCell id="JT9aqktlmIeVcldBPZ3t-119" style="edgeStyle=orthogonalEdgeStyle;rounded=0;orthogonalLoop=1;jettySize=auto;html=1;exitX=1;exitY=0.5;exitDx=0;exitDy=0;entryX=0;entryY=0.5;entryDx=0;entryDy=0;fontFamily=Helvetica;fontSize=12;fontColor=default;" edge="1" parent="1" source="JT9aqktlmIeVcldBPZ3t-32" target="JT9aqktlmIeVcldBPZ3t-38">
          <mxGeometry relative="1" as="geometry">
            <Array as="points">
              <mxPoint x="889" y="319" />
              <mxPoint x="889" y="468" />
            </Array>
          </mxGeometry>
        </mxCell>
        <mxCell id="JT9aqktlmIeVcldBPZ3t-120" value="" style="edgeLabel;html=1;align=center;verticalAlign=middle;resizable=0;points=[];rounded=1;strokeColor=default;arcSize=8;fontFamily=Helvetica;fontSize=12;fontColor=default;fillColor=default;" vertex="1" connectable="0" parent="JT9aqktlmIeVcldBPZ3t-119">
          <mxGeometry x="-0.369" relative="1" as="geometry">
            <mxPoint as="offset" />
          </mxGeometry>
        </mxCell>
        <mxCell id="JT9aqktlmIeVcldBPZ3t-129" value="A1" style="edgeLabel;html=1;align=center;verticalAlign=middle;resizable=0;points=[];rounded=1;strokeColor=default;arcSize=8;fontFamily=Helvetica;fontSize=12;fontColor=default;fillColor=default;" vertex="1" connectable="0" parent="JT9aqktlmIeVcldBPZ3t-119">
          <mxGeometry x="-0.5401" y="1" relative="1" as="geometry">
            <mxPoint as="offset" />
          </mxGeometry>
        </mxCell>
        <mxCell id="JT9aqktlmIeVcldBPZ3t-188" style="edgeStyle=orthogonalEdgeStyle;rounded=0;orthogonalLoop=1;jettySize=auto;html=1;exitX=0;exitY=0.25;exitDx=0;exitDy=0;entryX=0.579;entryY=0.021;entryDx=0;entryDy=0;fontFamily=Helvetica;fontSize=12;fontColor=default;entryPerimeter=0;" edge="1" parent="1" target="JT9aqktlmIeVcldBPZ3t-31">
          <mxGeometry relative="1" as="geometry">
            <mxPoint x="724" y="303" as="sourcePoint" />
            <mxPoint x="628" y="440" as="targetPoint" />
            <Array as="points">
              <mxPoint x="695" y="303" />
              <mxPoint x="695" y="419" />
              <mxPoint x="628" y="419" />
            </Array>
          </mxGeometry>
        </mxCell>
        <mxCell id="JT9aqktlmIeVcldBPZ3t-192" value="A2" style="edgeLabel;html=1;align=center;verticalAlign=middle;resizable=0;points=[];rounded=1;strokeColor=default;arcSize=8;fontFamily=Helvetica;fontSize=12;fontColor=default;fillColor=default;" vertex="1" connectable="0" parent="JT9aqktlmIeVcldBPZ3t-188">
          <mxGeometry x="0.5302" y="1" relative="1" as="geometry">
            <mxPoint as="offset" />
          </mxGeometry>
        </mxCell>
        <mxCell id="JT9aqktlmIeVcldBPZ3t-32" value="Wallet Address D&lt;span style=&quot;font-family: &amp;quot;Helvetica Neue&amp;quot;; text-align: start; background-color: initial;&quot;&gt;istributor&lt;/span&gt;&lt;span style=&quot;background-color: initial;&quot;&gt;&amp;nbsp;Service&lt;/span&gt;" style="rounded=1;whiteSpace=wrap;html=1;arcSize=6;fontSize=13;absoluteArcSize=1;" vertex="1" parent="1">
          <mxGeometry x="724" y="295" width="140" height="48" as="geometry" />
        </mxCell>
        <mxCell id="JT9aqktlmIeVcldBPZ3t-33" value="Pods" style="rounded=1;whiteSpace=wrap;html=1;arcSize=6;fontSize=13;absoluteArcSize=1;" vertex="1" parent="1">
          <mxGeometry x="901" y="364" width="140" height="48" as="geometry" />
        </mxCell>
        <mxCell id="JT9aqktlmIeVcldBPZ3t-34" value="Redis Cluster" style="rounded=1;whiteSpace=wrap;html=1;arcSize=8;fontSize=13;absoluteArcSize=1;" vertex="1" parent="1">
          <mxGeometry x="724" y="444" width="140" height="48" as="geometry" />
        </mxCell>
        <mxCell id="JT9aqktlmIeVcldBPZ3t-38" value="Database (Wallet Address Source)" style="rounded=1;whiteSpace=wrap;html=1;arcSize=8;fontSize=13;absoluteArcSize=1;" vertex="1" parent="1">
          <mxGeometry x="902" y="444" width="140" height="48" as="geometry" />
        </mxCell>
        <mxCell id="JT9aqktlmIeVcldBPZ3t-41" value="&lt;font color=&quot;#ffffff&quot; style=&quot;font-size: 10px;&quot;&gt;1&lt;/font&gt;" style="ellipse;whiteSpace=wrap;html=1;rounded=1;strokeColor=default;align=center;verticalAlign=middle;arcSize=8;fontFamily=Helvetica;fontSize=10;fontColor=default;fillColor=#000000;" vertex="1" parent="1">
          <mxGeometry x="670" y="149" width="12" height="12" as="geometry" />
        </mxCell>
        <mxCell id="JT9aqktlmIeVcldBPZ3t-43" value="&lt;font color=&quot;#ffffff&quot; style=&quot;font-size: 10px;&quot;&gt;3&lt;/font&gt;" style="ellipse;whiteSpace=wrap;html=1;rounded=1;strokeColor=default;align=center;verticalAlign=middle;arcSize=8;fontFamily=Helvetica;fontSize=10;fontColor=default;fillColor=#000000;" vertex="1" parent="1">
          <mxGeometry x="1021" y="253.75" width="12" height="12" as="geometry" />
        </mxCell>
        <mxCell id="JT9aqktlmIeVcldBPZ3t-44" value="&lt;font color=&quot;#ffffff&quot; style=&quot;font-size: 10px;&quot;&gt;4&lt;/font&gt;" style="ellipse;whiteSpace=wrap;html=1;rounded=1;strokeColor=default;align=center;verticalAlign=middle;arcSize=8;fontFamily=Helvetica;fontSize=10;fontColor=default;fillColor=#000000;" vertex="1" parent="1">
          <mxGeometry x="492" y="301" width="12" height="12" as="geometry" />
        </mxCell>
        <mxCell id="JT9aqktlmIeVcldBPZ3t-45" value="&lt;font color=&quot;#ffffff&quot; style=&quot;font-size: 10px;&quot;&gt;5&lt;/font&gt;" style="ellipse;whiteSpace=wrap;html=1;rounded=1;strokeColor=default;align=center;verticalAlign=middle;arcSize=8;fontFamily=Helvetica;fontSize=10;fontColor=default;fillColor=#000000;" vertex="1" parent="1">
          <mxGeometry x="670" y="300" width="12" height="12" as="geometry" />
        </mxCell>
        <mxCell id="JT9aqktlmIeVcldBPZ3t-46" value="&lt;font color=&quot;#ffffff&quot; style=&quot;font-size: 10px;&quot;&gt;6&lt;/font&gt;" style="ellipse;whiteSpace=wrap;html=1;rounded=1;strokeColor=default;align=center;verticalAlign=middle;arcSize=8;fontFamily=Helvetica;fontSize=10;fontColor=default;fillColor=#000000;" vertex="1" parent="1">
          <mxGeometry x="847" y="300" width="12" height="12" as="geometry" />
        </mxCell>
        <mxCell id="JT9aqktlmIeVcldBPZ3t-47" value="&lt;font color=&quot;#ffffff&quot; style=&quot;font-size: 10px;&quot;&gt;7&lt;/font&gt;" style="ellipse;whiteSpace=wrap;html=1;rounded=1;strokeColor=default;align=center;verticalAlign=middle;arcSize=8;fontFamily=Helvetica;fontSize=10;fontColor=default;fillColor=#000000;" vertex="1" parent="1">
          <mxGeometry x="1021" y="300" width="12" height="12" as="geometry" />
        </mxCell>
        <mxCell id="JT9aqktlmIeVcldBPZ3t-50" value="&lt;font color=&quot;#ffffff&quot; style=&quot;font-size: 10px;&quot;&gt;8&lt;/font&gt;" style="ellipse;whiteSpace=wrap;html=1;rounded=1;strokeColor=default;align=center;verticalAlign=middle;arcSize=8;fontFamily=Helvetica;fontSize=10;fontColor=default;fillColor=#000000;" vertex="1" parent="1">
          <mxGeometry x="492" y="457" width="12" height="12" as="geometry" />
        </mxCell>
        <mxCell id="JT9aqktlmIeVcldBPZ3t-51" value="&lt;font color=&quot;#ffffff&quot; style=&quot;font-size: 10px;&quot;&gt;9&lt;/font&gt;" style="ellipse;whiteSpace=wrap;html=1;rounded=1;strokeColor=default;align=center;verticalAlign=middle;arcSize=8;fontFamily=Helvetica;fontSize=10;fontColor=default;fillColor=#000000;" vertex="1" parent="1">
          <mxGeometry x="670" y="457" width="12" height="12" as="geometry" />
        </mxCell>
        <mxCell id="JT9aqktlmIeVcldBPZ3t-52" value="&lt;font color=&quot;#ffffff&quot; style=&quot;font-size: 10px;&quot;&gt;10&lt;/font&gt;" style="ellipse;whiteSpace=wrap;html=1;rounded=1;strokeColor=default;align=center;verticalAlign=middle;arcSize=8;fontFamily=Helvetica;fontSize=10;fontColor=default;fillColor=#000000;" vertex="1" parent="1">
          <mxGeometry x="848" y="456" width="12" height="12" as="geometry" />
        </mxCell>
        <mxCell id="JT9aqktlmIeVcldBPZ3t-53" value="&lt;font color=&quot;#ffffff&quot; style=&quot;font-size: 10px;&quot;&gt;11&lt;/font&gt;" style="ellipse;whiteSpace=wrap;html=1;rounded=1;strokeColor=default;align=center;verticalAlign=middle;arcSize=8;fontFamily=Helvetica;fontSize=10;fontColor=default;fillColor=#000000;" vertex="1" parent="1">
          <mxGeometry x="1025" y="447" width="12" height="12" as="geometry" />
        </mxCell>
        <mxCell id="JT9aqktlmIeVcldBPZ3t-54" value="" style="rounded=1;whiteSpace=wrap;html=1;dashed=1;fillColor=none;arcSize=6;absoluteArcSize=1;" vertex="1" parent="1">
          <mxGeometry x="223" y="565" width="927" height="60" as="geometry" />
        </mxCell>
        <mxCell id="JT9aqktlmIeVcldBPZ3t-55" value="ONEKEY Wallet Client" style="text;html=1;align=center;verticalAlign=middle;whiteSpace=wrap;rounded=0;fontSize=20;" vertex="1" parent="1">
          <mxGeometry x="89" y="569" width="126" height="60" as="geometry" />
        </mxCell>
        <mxCell id="JT9aqktlmIeVcldBPZ3t-59" value="App Wallet" style="rounded=1;whiteSpace=wrap;html=1;arcSize=8;fontSize=13;" vertex="1" parent="1">
          <mxGeometry x="333" y="584.25" width="356" height="29.5" as="geometry" />
        </mxCell>
        <mxCell id="JT9aqktlmIeVcldBPZ3t-60" value="&lt;p style=&quot;margin: 0px; font-variant-numeric: normal; font-variant-east-asian: normal; font-variant-alternates: normal; font-kerning: auto; font-optical-sizing: auto; font-feature-settings: normal; font-variation-settings: normal; font-variant-position: normal; font-stretch: normal; line-height: normal; font-family: &amp;quot;Helvetica Neue&amp;quot;; text-align: start;&quot; class=&quot;p1&quot;&gt;Hardware Wallet&lt;/p&gt;" style="rounded=1;whiteSpace=wrap;html=1;arcSize=8;fontSize=13;" vertex="1" parent="1">
          <mxGeometry x="715" y="584.25" width="336" height="29.5" as="geometry" />
        </mxCell>
        <mxCell id="JT9aqktlmIeVcldBPZ3t-92" value="" style="endArrow=none;html=1;rounded=0;fontFamily=Helvetica;fontSize=12;fontColor=default;entryX=0.5;entryY=1;entryDx=0;entryDy=0;exitX=0.5;exitY=0;exitDx=0;exitDy=0;" edge="1" parent="1" source="JT9aqktlmIeVcldBPZ3t-22" target="JT9aqktlmIeVcldBPZ3t-18">
          <mxGeometry width="50" height="50" relative="1" as="geometry">
            <mxPoint x="624" y="429" as="sourcePoint" />
            <mxPoint x="674" y="379" as="targetPoint" />
          </mxGeometry>
        </mxCell>
        <mxCell id="JT9aqktlmIeVcldBPZ3t-93" value="" style="endArrow=none;html=1;rounded=0;fontFamily=Helvetica;fontSize=12;fontColor=default;entryX=0.5;entryY=1;entryDx=0;entryDy=0;exitX=0.5;exitY=0;exitDx=0;exitDy=0;" edge="1" parent="1" source="JT9aqktlmIeVcldBPZ3t-26" target="JT9aqktlmIeVcldBPZ3t-19">
          <mxGeometry width="50" height="50" relative="1" as="geometry">
            <mxPoint x="637" y="405" as="sourcePoint" />
            <mxPoint x="687" y="355" as="targetPoint" />
          </mxGeometry>
        </mxCell>
        <mxCell id="JT9aqktlmIeVcldBPZ3t-94" value="" style="endArrow=none;html=1;rounded=0;fontFamily=Helvetica;fontSize=12;fontColor=default;entryX=0.5;entryY=1;entryDx=0;entryDy=0;exitX=0.5;exitY=0;exitDx=0;exitDy=0;" edge="1" parent="1" source="JT9aqktlmIeVcldBPZ3t-27" target="JT9aqktlmIeVcldBPZ3t-32">
          <mxGeometry width="50" height="50" relative="1" as="geometry">
            <mxPoint x="733" y="401" as="sourcePoint" />
            <mxPoint x="783" y="351" as="targetPoint" />
          </mxGeometry>
        </mxCell>
        <mxCell id="JT9aqktlmIeVcldBPZ3t-95" value="" style="endArrow=none;html=1;rounded=0;fontFamily=Helvetica;fontSize=12;fontColor=default;entryX=0.5;entryY=1;entryDx=0;entryDy=0;exitX=0.5;exitY=0;exitDx=0;exitDy=0;" edge="1" parent="1" source="JT9aqktlmIeVcldBPZ3t-33" target="JT9aqktlmIeVcldBPZ3t-25">
          <mxGeometry width="50" height="50" relative="1" as="geometry">
            <mxPoint x="948" y="422" as="sourcePoint" />
            <mxPoint x="998" y="372" as="targetPoint" />
          </mxGeometry>
        </mxCell>
        <mxCell id="JT9aqktlmIeVcldBPZ3t-113" value="&lt;span style=&quot;font-family: &amp;quot;Helvetica Neue&amp;quot;; text-align: start;&quot;&gt;API&lt;/span&gt;" style="rounded=1;whiteSpace=wrap;html=1;arcSize=8;fontSize=13;" vertex="1" parent="1">
          <mxGeometry x="712" y="136.25" width="329" height="29.5" as="geometry" />
        </mxCell>
        <mxCell id="JT9aqktlmIeVcldBPZ3t-158" style="rounded=0;orthogonalLoop=1;jettySize=auto;html=1;exitX=0.25;exitY=1;exitDx=0;exitDy=0;exitPerimeter=0;entryX=0.083;entryY=0.016;entryDx=0;entryDy=0;entryPerimeter=0;fontFamily=Helvetica;fontSize=12;fontColor=default;" edge="1" parent="1" source="JT9aqktlmIeVcldBPZ3t-17" target="JT9aqktlmIeVcldBPZ3t-15">
          <mxGeometry relative="1" as="geometry" />
        </mxCell>
        <mxCell id="JT9aqktlmIeVcldBPZ3t-164" value="C1" style="edgeLabel;html=1;align=center;verticalAlign=middle;resizable=0;points=[];rounded=1;strokeColor=default;arcSize=8;fontFamily=Helvetica;fontSize=12;fontColor=default;fillColor=default;" vertex="1" connectable="0" parent="JT9aqktlmIeVcldBPZ3t-158">
          <mxGeometry x="-0.2816" y="2" relative="1" as="geometry">
            <mxPoint as="offset" />
          </mxGeometry>
        </mxCell>
        <mxCell id="JT9aqktlmIeVcldBPZ3t-160" style="rounded=0;orthogonalLoop=1;jettySize=auto;html=1;exitX=0.5;exitY=1;exitDx=0;exitDy=0;exitPerimeter=0;entryX=0.213;entryY=0.049;entryDx=0;entryDy=0;entryPerimeter=0;fontFamily=Helvetica;fontSize=12;fontColor=default;" edge="1" parent="1" source="JT9aqktlmIeVcldBPZ3t-17" target="JT9aqktlmIeVcldBPZ3t-15">
          <mxGeometry relative="1" as="geometry" />
        </mxCell>
        <mxCell id="JT9aqktlmIeVcldBPZ3t-161" value="E1" style="edgeLabel;html=1;align=center;verticalAlign=middle;resizable=0;points=[];rounded=1;strokeColor=default;arcSize=8;fontFamily=Helvetica;fontSize=12;fontColor=default;fillColor=default;" vertex="1" connectable="0" parent="JT9aqktlmIeVcldBPZ3t-160">
          <mxGeometry x="-0.2914" y="2" relative="1" as="geometry">
            <mxPoint as="offset" />
          </mxGeometry>
        </mxCell>
        <mxCell id="JT9aqktlmIeVcldBPZ3t-165" style="edgeStyle=orthogonalEdgeStyle;rounded=0;orthogonalLoop=1;jettySize=auto;html=1;exitX=0.08;exitY=1;exitDx=0;exitDy=0;exitPerimeter=0;entryX=0.379;entryY=0;entryDx=0;entryDy=0;entryPerimeter=0;fontFamily=Helvetica;fontSize=12;fontColor=default;" edge="1" parent="1">
          <mxGeometry relative="1" as="geometry">
            <mxPoint x="407.76" y="275" as="sourcePoint" />
            <mxPoint x="407.05999999999995" y="295" as="targetPoint" />
          </mxGeometry>
        </mxCell>
        <mxCell id="JT9aqktlmIeVcldBPZ3t-169" value="C2" style="text;html=1;align=center;verticalAlign=middle;whiteSpace=wrap;rounded=0;fontFamily=Helvetica;fontSize=12;fontColor=default;" vertex="1" parent="1">
          <mxGeometry x="373" y="275" width="40" height="20" as="geometry" />
        </mxCell>
        <mxCell id="JT9aqktlmIeVcldBPZ3t-170" value="E2" style="text;html=1;align=center;verticalAlign=middle;whiteSpace=wrap;rounded=0;fontFamily=Helvetica;fontSize=12;fontColor=default;" vertex="1" parent="1">
          <mxGeometry x="440" y="275" width="40" height="20" as="geometry" />
        </mxCell>
        <mxCell id="JT9aqktlmIeVcldBPZ3t-173" style="edgeStyle=orthogonalEdgeStyle;rounded=0;orthogonalLoop=1;jettySize=auto;html=1;exitX=0;exitY=0.5;exitDx=0;exitDy=0;entryX=0;entryY=0.5;entryDx=0;entryDy=0;fontFamily=Helvetica;fontSize=12;fontColor=default;" edge="1" parent="1">
          <mxGeometry relative="1" as="geometry">
            <mxPoint x="370" y="327" as="sourcePoint" />
            <mxPoint x="370" y="476" as="targetPoint" />
            <Array as="points">
              <mxPoint x="356" y="327" />
              <mxPoint x="356" y="476" />
            </Array>
          </mxGeometry>
        </mxCell>
        <mxCell id="JT9aqktlmIeVcldBPZ3t-174" value="E3" style="edgeLabel;html=1;align=center;verticalAlign=middle;resizable=0;points=[];rounded=1;strokeColor=default;arcSize=8;fontFamily=Helvetica;fontSize=12;fontColor=default;fillColor=default;" vertex="1" connectable="0" parent="JT9aqktlmIeVcldBPZ3t-173">
          <mxGeometry x="-0.1073" y="-1" relative="1" as="geometry">
            <mxPoint as="offset" />
          </mxGeometry>
        </mxCell>
        <mxCell id="JT9aqktlmIeVcldBPZ3t-175" style="edgeStyle=elbowEdgeStyle;rounded=0;orthogonalLoop=1;jettySize=auto;html=1;exitX=0;exitY=0.5;exitDx=0;exitDy=0;entryX=1;entryY=0.5;entryDx=0;entryDy=0;fontFamily=Helvetica;fontSize=12;fontColor=default;" edge="1" parent="1">
          <mxGeometry relative="1" as="geometry">
            <mxPoint x="547" y="327" as="sourcePoint" />
            <mxPoint x="510" y="476" as="targetPoint" />
            <Array as="points">
              <mxPoint x="533" y="402" />
            </Array>
          </mxGeometry>
        </mxCell>
        <mxCell id="JT9aqktlmIeVcldBPZ3t-181" value="E4" style="edgeLabel;html=1;align=center;verticalAlign=middle;resizable=0;points=[];rounded=1;strokeColor=default;arcSize=8;fontFamily=Helvetica;fontSize=12;fontColor=default;fillColor=default;" vertex="1" connectable="0" parent="JT9aqktlmIeVcldBPZ3t-175">
          <mxGeometry x="0.3333" y="-1" relative="1" as="geometry">
            <mxPoint x="1" y="2" as="offset" />
          </mxGeometry>
        </mxCell>
        <mxCell id="JT9aqktlmIeVcldBPZ3t-177" style="edgeStyle=elbowEdgeStyle;rounded=0;orthogonalLoop=1;jettySize=auto;html=1;exitX=0;exitY=0.5;exitDx=0;exitDy=0;entryX=1;entryY=0.5;entryDx=0;entryDy=0;fontFamily=Helvetica;fontSize=12;fontColor=default;" edge="1" parent="1">
          <mxGeometry relative="1" as="geometry">
            <mxPoint x="547" y="315" as="sourcePoint" />
            <mxPoint x="510" y="464" as="targetPoint" />
            <Array as="points">
              <mxPoint x="523" y="391" />
            </Array>
          </mxGeometry>
        </mxCell>
        <mxCell id="JT9aqktlmIeVcldBPZ3t-179" value="D1" style="edgeLabel;html=1;align=center;verticalAlign=middle;resizable=0;points=[];rounded=1;strokeColor=default;arcSize=8;fontFamily=Helvetica;fontSize=12;fontColor=default;fillColor=default;" vertex="1" connectable="0" parent="JT9aqktlmIeVcldBPZ3t-177">
          <mxGeometry x="-0.0968" relative="1" as="geometry">
            <mxPoint as="offset" />
          </mxGeometry>
        </mxCell>
        <mxCell id="JT9aqktlmIeVcldBPZ3t-185" style="edgeStyle=elbowEdgeStyle;rounded=0;orthogonalLoop=1;jettySize=auto;html=1;exitX=1;exitY=0.5;exitDx=0;exitDy=0;entryX=0;entryY=0.5;entryDx=0;entryDy=0;fontFamily=Helvetica;fontSize=12;fontColor=default;" edge="1" parent="1">
          <mxGeometry relative="1" as="geometry">
            <mxPoint x="687" y="326" as="sourcePoint" />
            <mxPoint x="724" y="475" as="targetPoint" />
            <Array as="points">
              <mxPoint x="703" y="403" />
            </Array>
          </mxGeometry>
        </mxCell>
        <mxCell id="JT9aqktlmIeVcldBPZ3t-186" value="E5" style="edgeLabel;html=1;align=center;verticalAlign=middle;resizable=0;points=[];rounded=1;strokeColor=default;arcSize=8;fontFamily=Helvetica;fontSize=12;fontColor=default;fillColor=default;" vertex="1" connectable="0" parent="JT9aqktlmIeVcldBPZ3t-185">
          <mxGeometry x="0.2366" relative="1" as="geometry">
            <mxPoint x="-1" y="11" as="offset" />
          </mxGeometry>
        </mxCell>
        <mxCell id="JT9aqktlmIeVcldBPZ3t-195" style="edgeStyle=orthogonalEdgeStyle;rounded=0;orthogonalLoop=1;jettySize=auto;html=1;exitX=0.5;exitY=0;exitDx=0;exitDy=0;fontFamily=Helvetica;fontSize=12;fontColor=default;entryX=0.5;entryY=1;entryDx=0;entryDy=0;" edge="1" parent="1" source="JT9aqktlmIeVcldBPZ3t-19" target="JT9aqktlmIeVcldBPZ3t-113">
          <mxGeometry relative="1" as="geometry">
            <mxPoint x="874" y="180" as="targetPoint" />
            <Array as="points">
              <mxPoint x="617" y="214" />
              <mxPoint x="876" y="214" />
            </Array>
          </mxGeometry>
        </mxCell>
        <mxCell id="JT9aqktlmIeVcldBPZ3t-196" value="E6" style="edgeLabel;html=1;align=center;verticalAlign=middle;resizable=0;points=[];rounded=1;strokeColor=default;arcSize=8;fontFamily=Helvetica;fontSize=12;fontColor=default;fillColor=default;" vertex="1" connectable="0" parent="JT9aqktlmIeVcldBPZ3t-195">
          <mxGeometry x="0.8565" relative="1" as="geometry">
            <mxPoint y="-2" as="offset" />
          </mxGeometry>
        </mxCell>
        <mxCell id="JT9aqktlmIeVcldBPZ3t-15" value="Gateway API" style="rounded=1;whiteSpace=wrap;html=1;arcSize=8;fontSize=13;points=[[0,0,0,0,0],[0,0.25,0,0,0],[0,0.5,0,0,0],[0,0.75,0,0,0],[0,1,0,0,0],[0.08,1,0,0,0],[0.16,1,0,0,0],[0.25,0,0,0,0],[0.25,1,0,0,0],[0.5,0,0,0,0],[0.5,1,0,0,0],[0.75,0,0,0,0],[0.75,1,0,0,0],[0.88,1,0,0,0],[1,0,0,0,0],[1,0.25,0,0,0],[1,0.5,0,0,0],[1,0.75,0,0,0],[1,1,0,0,0]];" vertex="1" parent="1">
          <mxGeometry x="370" y="244.5" width="672" height="30.5" as="geometry" />
        </mxCell>
        <mxCell id="JT9aqktlmIeVcldBPZ3t-205" style="edgeStyle=orthogonalEdgeStyle;rounded=0;orthogonalLoop=1;jettySize=auto;html=1;exitX=0.88;exitY=1;exitDx=0;exitDy=0;exitPerimeter=0;entryX=0.43;entryY=0;entryDx=0;entryDy=0;entryPerimeter=0;fontFamily=Helvetica;fontSize=12;fontColor=default;" edge="1" parent="1" source="JT9aqktlmIeVcldBPZ3t-15" target="JT9aqktlmIeVcldBPZ3t-25">
          <mxGeometry relative="1" as="geometry" />
        </mxCell>
        <mxCell id="JT9aqktlmIeVcldBPZ3t-207" value="F2" style="text;html=1;align=center;verticalAlign=middle;whiteSpace=wrap;rounded=0;fontFamily=Helvetica;fontSize=12;fontColor=default;" vertex="1" parent="1">
          <mxGeometry x="912" y="270" width="60" height="30" as="geometry" />
        </mxCell>
      </root>
    </mxGraphModel>
  </diagram>
</mxfile>
